<svg height="480pt" viewBox="0 0 480 480" width="480pt" xmlns="http://www.w3.org/2000/svg"><path d="m192 184v-32c0-17.671875-14.328125-32-32-32h-72v56l-88-88 88-88v56h88c44.183594 0 80 35.816406 80 80v40" fill="#d1a339"/><path d="m288 184v-32c0-17.671875 14.328125-32 32-32h72v56l88-88-88-88v56h-88c-44.183594 0-80 35.816406-80 80v40" fill="#f0d365"/><g fill="#8bd2f5"><path d="m384 240c0 8.835938-7.164062 16-16 16s-16-7.164062-16-16 7.164062-16 16-16 16 7.164062 16 16zm0 0"/><path d="m464 216c0 13.253906-10.746094 24-24 24s-24-10.746094-24-24 10.746094-24 24-24 24 10.746094 24 24zm0 0"/><path d="m128 240c0 8.835938-7.164062 16-16 16s-16-7.164062-16-16 7.164062-16 16-16 16 7.164062 16 16zm0 0"/><path d="m64 216c0 13.253906-10.746094 24-24 24s-24-10.746094-24-24 10.746094-24 24-24 24 10.746094 24 24zm0 0"/></g><path d="m360 480v-32c0-44.183594-35.816406-80-80-80h-80c-44.183594 0-80 35.816406-80 80v32" fill="#d1a339"/><path d="m256 368h-56c-44.183594 0-80 35.816406-80 80v32h216v-32c0-44.183594-35.816406-80-80-80zm0 0" fill="#f0d365"/><path d="m208 368 32 40 32-40" fill="#db9b7c"/><path d="m184 320h-16c-13.257812 0-24-10.742188-24-24s10.742188-24 24-24h16" fill="#db9b7c"/><path d="m296 272h16c13.257812 0 24 10.742188 24 24s-10.742188 24-24 24h-16" fill="#efbe9a"/><path d="m304 232v72c0 35.34375-28.65625 64-64 64s-64-28.65625-64-64v-72" fill="#db9b7c"/><path d="m228 366.839844c29.609375-5.625 52-31.601563 52-62.839844v-72h-104v72c0 31.238281 22.390625 57.214844 52 62.839844zm0 0" fill="#efbe9a"/><path d="m256 216v8c0 26.511719-21.488281 48-48 48h-48v-40c0-30.929688 25.070312-56 56-56h48c30.929688 0 56 25.070312 56 56v40h-40c-13.257812 0-24-10.742188-24-24zm0 0" fill="#976947"/><path d="m295.496094 185.703125c-8.976563-6.117187-19.816406-9.703125-31.496094-9.703125h-48c-30.929688 0-56 25.070312-56 56v40h48c26.511719 0 48-21.488281 48-48v24c0 8.296875 4.207031 15.609375 10.609375 19.921875 18.09375-18.195313 29.390625-43.664063 29.390625-71.921875 0-3.480469-.175781-6.910156-.503906-10.296875zm0 0" fill="#c18e59"/></svg>